name Walk5.mot
datacolumns 19
datarows 22
range 2.27200000 2.29300000
endheader

                time	   L_ground_force_vx	   L_ground_force_vy	   L_ground_force_vz	   L_ground_force_px	   L_ground_force_py	   L_ground_force_pz	   R_ground_force_vx	   R_ground_force_vy	   R_ground_force_vz	   R_ground_force_px	   R_ground_force_py	   R_ground_force_pz	   L_ground_torque_x	   L_ground_torque_y	   L_ground_torque_z	   R_ground_torque_x	   R_ground_torque_y	   R_ground_torque_z	
          2.27200000	          0.00000000	          0.00000000	          0.00000000	          0.00000000	          0.00000000	          0.00000000	         12.22767074	         55.30133439	         15.27438580	          0.62983411	          0.00000000	          0.13460262	          0.00000000	          0.00000000	          0.00000000	          0.00000000	         -2.89193718	          0.00000000	
          2.27300000	          0.00000000	          0.00000000	          0.00000000	          0.00000000	          0.00000000	          0.00000000	         10.84252268	         52.06565584	         14.36820351	          0.63073395	          0.00000000	          0.13550622	          0.00000000	          0.00000000	          0.00000000	          0.00000000	         -2.63275800	          0.00000000	
          2.27400000	          0.00000000	          0.00000000	          0.00000000	          0.00000000	          0.00000000	          0.00000000	          9.52861643	         48.86144659	         13.46868449	          0.63188684	          0.00000000	          0.13583371	          0.00000000	          0.00000000	          0.00000000	          0.00000000	         -2.36982498	          0.00000000	
          2.27500000	          0.00000000	          0.00000000	          0.00000000	          0.00000000	          0.00000000	          0.00000000	          8.29925590	         45.66759409	         12.59933108	          0.63371701	          0.00000000	          0.13567660	          0.00000000	          0.00000000	          0.00000000	          0.00000000	         -2.09526743	          0.00000000	
          2.27600000	          0.00000000	          0.00000000	          0.00000000	          0.00000000	          0.00000000	          0.00000000	          7.15369706	         42.53536464	         11.77416569	          0.63615892	          0.00000000	          0.13530558	          0.00000000	          0.00000000	          0.00000000	          0.00000000	         -1.81763743	          0.00000000	
          2.27700000	          0.00000000	          0.00000000	          0.00000000	          0.00000000	          0.00000000	          0.00000000	          6.07327407	         39.56153494	         10.99990501	          0.63880523	          0.00000000	          0.13505243	          0.00000000	          0.00000000	          0.00000000	          0.00000000	         -1.55263425	          0.00000000	
          2.27800000	          0.00000000	          0.00000000	          0.00000000	          0.00000000	          0.00000000	          0.00000000	          5.02946384	         36.86407190	         10.28606786	          0.64120124	          0.00000000	          0.13517085	          0.00000000	          0.00000000	          0.00000000	          0.00000000	         -1.31071733	          0.00000000	
          2.27900000	          0.00000000	          0.00000000	          0.00000000	          0.00000000	          0.00000000	          0.00000000	          3.99915718	         34.52626501	          9.63671725	          0.64303466	          0.00000000	          0.13575653	          0.00000000	          0.00000000	          0.00000000	          0.00000000	         -1.09578981	          0.00000000	
          2.28000000	          0.00000000	          0.00000000	          0.00000000	          0.00000000	          0.00000000	          0.00000000	          2.97619463	         32.53003427	          9.03659747	          0.64425801	          0.00000000	          0.13671889	          0.00000000	          0.00000000	          0.00000000	          0.00000000	         -0.90985692	          0.00000000	
          2.28100000	          0.00000000	          0.00000000	          0.00000000	          0.00000000	          0.00000000	          0.00000000	          1.96942808	         30.76459547	          8.45776685	          0.64492287	          0.00000000	          0.13795838	          0.00000000	          0.00000000	          0.00000000	          0.00000000	         -0.75437785	          0.00000000	
          2.28200000	          0.00000000	          0.00000000	          0.00000000	          0.00000000	          0.00000000	          0.00000000	          1.00181994	         29.07107723	          7.86735063	          0.64505116	          0.00000000	          0.13951092	          0.00000000	          0.00000000	          0.00000000	          0.00000000	         -0.62534489	          0.00000000	
          2.28300000	          0.00000000	          0.00000000	          0.00000000	          0.00000000	          0.00000000	          0.00000000	          0.12280930	         27.23760305	          7.22146196	          0.64489232	          0.00000000	          0.14130236	          0.00000000	          0.00000000	          0.00000000	          0.00000000	         -0.51072383	          0.00000000	
          2.28400000	          0.00000000	          0.00000000	          0.00000000	          0.00000000	          0.00000000	          0.00000000	         -0.59130501	         24.99072075	          6.46579375	          0.64494443	          0.00000000	          0.14309831	          0.00000000	          0.00000000	          0.00000000	          0.00000000	         -0.39731902	          0.00000000	
          2.28500000	          0.00000000	          0.00000000	          0.00000000	          0.00000000	          0.00000000	          0.00000000	         -1.06365929	         22.03611716	          5.54965502	          0.64539742	          0.00000000	          0.14479567	          0.00000000	          0.00000000	          0.00000000	          0.00000000	         -0.28067468	          0.00000000	
          2.28600000	          0.00000000	          0.00000000	          0.00000000	          0.00000000	          0.00000000	          0.00000000	         -1.24574265	         18.14619578	          4.44579510	          0.64596166	          0.00000000	          0.14642243	          0.00000000	          0.00000000	          0.00000000	          0.00000000	         -0.16892324	          0.00000000	
          2.28700000	          0.00000000	          0.00000000	          0.00000000	          0.00000000	          0.00000000	          0.00000000	         -1.14577490	         13.39708939	          3.19554808	          0.64638882	          0.00000000	          0.14800566	          0.00000000	          0.00000000	          0.00000000	          0.00000000	         -0.07730714	          0.00000000	
          2.28800000	          0.00000000	          0.00000000	          0.00000000	          0.00000000	          0.00000000	          0.00000000	          0.00000000	          0.00000000	          0.00000000	          0.00000000	          0.00000000	          0.00000000	          0.00000000	          0.00000000	          0.00000000	          0.00000000	          0.00000000	          0.00000000	
          2.28900000	          0.00000000	          0.00000000	          0.00000000	          0.00000000	          0.00000000	          0.00000000	          0.00000000	          0.00000000	          0.00000000	          0.00000000	          0.00000000	          0.00000000	          0.00000000	          0.00000000	          0.00000000	          0.00000000	          0.00000000	          0.00000000	
          2.29000000	          0.00000000	          0.00000000	          0.00000000	          0.00000000	          0.00000000	          0.00000000	          0.00000000	          0.00000000	          0.00000000	          0.00000000	          0.00000000	          0.00000000	          0.00000000	          0.00000000	          0.00000000	          0.00000000	          0.00000000	          0.00000000	
          2.29100000	          0.00000000	          0.00000000	          0.00000000	          0.00000000	          0.00000000	          0.00000000	          0.00000000	          0.00000000	          0.00000000	          0.00000000	          0.00000000	          0.00000000	          0.00000000	          0.00000000	          0.00000000	          0.00000000	          0.00000000	          0.00000000	
          2.29200000	          0.00000000	          0.00000000	          0.00000000	          0.00000000	          0.00000000	          0.00000000	          0.00000000	          0.00000000	          0.00000000	          0.00000000	          0.00000000	          0.00000000	          0.00000000	          0.00000000	          0.00000000	          0.00000000	          0.00000000	          0.00000000	
          2.29300000	          0.00000000	          0.00000000	          0.00000000	          0.00000000	          0.00000000	          0.00000000	          0.00000000	          0.00000000	          0.00000000	          0.00000000	          0.00000000	          0.00000000	          0.00000000	          0.00000000	          0.00000000	          0.00000000	          0.00000000	          0.00000000	
